<?xml version="1.0" encoding="utf-8"?>
<!-- Generator: Adobe Illustrator 27.5.0, SVG Export Plug-In . SVG Version: 6.00 Build 0)  -->
<svg version="1.1" id="Layer_1" xmlns="http://www.w3.org/2000/svg" xmlns:xlink="http://www.w3.org/1999/xlink" x="0px" y="0px"
	 viewBox="0 0 4000 4000" style="enable-background:new 0 0 4000 4000;" xml:space="preserve">
<g>
	<rect x="-0.001" style="fill-rule:evenodd;clip-rule:evenodd;fill:#FFFFFF;" width="4000.002" height="4000"/>
	<path style="fill-rule:evenodd;clip-rule:evenodd;" d="M1747.386,2235.259c0,0-74.288-45.33-117.098-76.81
		c-42.806-31.473-81.84-54.142-162.423-69.25c0,0-22.668,52.885,36.515,137.245
		C1563.56,2310.802,1647.923,2276.806,1747.386,2235.259 M1343.988,2196.893c71.83,140.088,189.6,238.846,358.838,190.123
		C1551.76,2455.307,1352.826,2391.377,1343.988,2196.893z M2252.614,2235.259c0,0,74.284-45.33,117.094-76.81
		c42.806-31.473,81.84-54.142,162.423-69.25c0,0,22.669,52.885-36.515,137.245
		C2436.44,2310.802,2352.073,2276.806,2252.614,2235.259z M2656.012,2196.893c-71.834,140.088-189.604,238.846-358.846,190.123
		C2448.236,2455.307,2647.17,2391.377,2656.012,2196.893z M1999.998,3311.54c-29.354-0.973-60.311-3.695-97.664-10.432
		c-97.656-17.627-95.691-104.503-128.426-164.943c-32.739-60.435-89.4-69.25-154.871-192.642
		c-65.479-123.393-75.545-180.052-171.236-269.448c-95.691-89.395-273.226-49.105-273.226-49.105l135.986-93.175
		c-117.098-26.442-222.864,27.7-222.864,27.7l113.322-98.211c-128.426-50.362-246.781-25.177-246.781-25.177l96.948-93.178H872.39
		c129.683-51.625,226.652-184.442,249.951-228.512c23.291-44.068,8.813-73.02,8.813-73.02
		c-49.105,5.037-125.277,30.847-125.277,30.847s48.299-88.205,117.855-126.852c-54.443-82.12-215.283-348.713-185.905-592.133
		c35.258-292.11,148.572-420.533,98.214-664.805c0,0,141.016,158.647,264.408,289.591
		c123.393,130.947,271.964,251.822,271.964,251.822c324.886-112.767,530.285-112.767,855.167,0c0,0,148.572-120.875,271.964-251.822
		c123.393-130.945,264.412-289.591,264.412-289.591c-50.362,244.271,62.952,372.695,98.21,664.805
		c29.378,243.42-131.462,510.013-185.905,592.133c69.556,38.647,117.855,126.852,117.855,126.852s-76.172-25.81-125.277-30.847
		c0,0-14.478,28.952,8.813,73.02c23.299,44.07,120.268,176.887,249.951,228.512h-178.796l96.948,93.178
		c0,0-118.355-25.185-246.781,25.177l113.326,98.211c0,0-105.77-54.142-222.868-27.7l135.986,93.175
		c0,0-177.535-40.29-273.226,49.105c-95.691,89.396-105.758,146.055-171.236,269.448
		c-65.47,123.392-122.131,132.207-154.871,192.642c-32.735,60.44-30.77,147.317-128.426,164.943
		C2060.309,3307.845,2029.352,3310.567,1999.998,3311.54z M1230.992,1894.506c64.213-45.438,164.233-98.815,270.398-89.163
		c180.054,16.365,243.009,112.063,263.155,130.947c20.15,18.888,79.325,67.988,76.807-91.913c0,0,64.213,56.655,91.915,185.083
		c27.698,128.433-26.445,214.058-55.404,266.933c0,0,80.579,32.74,78.068,157.39c0,0-13.851-61.691-91.915-110.802
		c0,0-28.955,36.51-22.664,66.732c6.295,30.217,55.391,135.973,27.69,231.667c0,0,0.004-186.35-89.388-259.375
		c-89.4-73.025-198.714-11.802-284.334-96.165c-85.62-84.365-56.893-202.248-207.983-240.02c0,0,83.101-45.33,183.83-5.035
		l-75.545-60.44c0,0,75.545,17.622,139.762,59.178c0,0-2.519-89.392-86.877-137.24c0,0,80.574,15.103,141.011,96.95
		c60.445,81.845,152.36,192.641,217.83,210.268c65.474,17.628,108.276-32.735,104.504-107.022
		c-3.776-74.286-46.586-178.795-46.586-178.795s-1.257,56.66-25.183,74.287c-23.922,17.632-66.732-5.031-117.094-52.88
		c-45.715-43.427-244.934-210.25-492.208-13.857c56.067,11.782,101.835,44.688,101.835,44.688
		c-117.094,25.18-130.941,125.905-175.004,205.228c-44.067,79.322-86.881,110.802-86.881,110.802
		c25.183,0,200.203,16.365,200.203,16.365l-156.132,60.44c118.355,2.513,156.132,81.845,297.778,115.213
		s207.129,121.502,207.129,121.502c-88.139-78.06-195.162-62.323-195.162-62.323c83.097,32.735,135.986,128.428,231.681,339.958
		c95.691,211.531,246.785,173.75,290.861,157.385c44.067-16.365-10.075-61.697-51.624-91.913
		c-41.549-30.218-119.617-84.36-119.617-114.582c0-30.217,5.037-158.645-26.44-239.23c-31.478-80.583-71.769-119.611-71.769-119.611
		c139.754,79.322,148.576,256.856,148.576,256.856c81.84-23.925,173.783-33.997,173.783-33.997s91.943,10.072,173.783,33.997
		c0,0,8.822-177.535,148.576-256.856c0,0-40.291,39.028-71.769,119.611c-31.478,80.585-26.44,209.013-26.44,239.23
		c0,30.222-78.068,84.363-119.617,114.582c-41.545,30.217-95.691,75.548-51.624,91.913c44.076,16.365,195.17,54.146,290.861-157.385
		c95.695-211.53,148.584-307.223,231.681-339.958c0,0-107.023-15.737-195.162,62.323c0,0,65.482-88.133,207.129-121.502
		s179.423-112.7,297.778-115.213l-156.132-60.44c0,0,175.02-16.365,200.203-16.365c0,0-42.814-31.48-86.881-110.802
		c-44.063-79.323-57.91-180.048-175-205.228c0,0,45.764-32.906,101.831-44.688c-247.274-196.393-446.492-29.57-492.208,13.857
		c-50.362,47.848-93.172,70.512-117.094,52.88c-23.926-17.626-25.183-74.287-25.183-74.287s-42.81,104.508-46.586,178.795
		c-3.772,74.287,39.03,124.65,104.504,107.022c65.47-17.627,157.385-128.423,217.83-210.268
		c60.437-81.847,141.011-96.95,141.011-96.95c-84.359,47.848-86.877,137.24-86.877,137.24
		c64.217-41.557,139.762-59.178,139.762-59.178l-75.545,60.44c100.728-40.295,183.83,5.035,183.83,5.035
		c-151.09,37.772-122.359,155.655-207.983,240.02c-85.62,84.363-194.934,23.14-284.334,96.165
		c-89.392,73.025-89.388,259.375-89.388,259.375c-27.702-95.693,21.395-201.45,27.69-231.667
		c6.291-30.222-22.664-66.732-22.664-66.732c-78.064,49.11-91.911,110.802-91.911,110.802
		c-2.515-124.65,78.064-157.39,78.064-157.39c-28.959-52.875-83.101-138.5-55.404-266.933
		c27.702-128.428,91.915-185.083,91.915-185.083c-2.519,159.901,56.657,110.802,76.807,91.913
		c20.146-18.883,83.101-114.582,263.155-130.947c106.164-9.652,206.185,43.725,270.398,89.163l-0.004-0.013
		c172.68-167.642,237.785-479.533,200.008-663.363c-37.773-183.832-70.508-355.068-70.508-355.068s-322.331,339.955-450.765,450.76
		c-128.43,110.801-123.389,186.345-65.47,234.195c57.914,47.848,105.766,27.698,176.278-78.067
		c70.512-105.77,103.247-153.61,171.236-251.82c67.989-98.212,135.982-241.749,135.982-241.749s65.474,241.749,35.254,450.755
		c-30.221,209.013-171.248,376.475-171.248,376.475c-69.25-56.66-74.292-217.825-56.665-283.295
		c17.627-65.475,79.325-255.6,79.325-255.6s-144.8,304.7-187.606,375.213c-42.806,70.512-162.427,12.59-222.864-33.998
		c-60.437-46.587-90.654-143.537-70.508-202.715c20.137-59.172,105.766-123.392,105.766-123.392
		c-107.308-60.358-647.127-60.358-754.431,0c0,0,85.624,64.22,105.762,123.392c20.146,59.178-10.071,156.128-70.512,202.715
		c-60.433,46.588-180.054,104.51-222.86,33.998c-42.806-70.513-187.606-375.213-187.606-375.213s61.698,190.125,79.325,255.6
		c17.627,65.47,12.585,226.635-56.665,283.295c0,0-141.028-167.461-171.244-376.475c-30.225-209.006,35.25-450.755,35.25-450.755
		s67.993,143.537,135.982,241.749c67.989,98.21,100.724,146.05,171.236,251.82c70.512,105.765,118.363,125.915,176.278,78.067
		c57.918-47.85,62.96-123.394-65.47-234.195c-128.434-110.805-450.765-450.76-450.765-450.76s-32.735,171.237-70.508,355.068
		c-37.773,183.83,27.327,495.721,200.008,663.363L1230.992,1894.506z"/>
</g>
</svg>
